<svg width="103" height="29" viewBox="0 0 103 29" fill="none" xmlns="http://www.w3.org/2000/svg">
<g clip-path="url(#clip0_23_1279)">
<g clip-path="url(#clip1_23_1279)">
<g clip-path="url(#clip2_23_1279)">
<g clip-path="url(#clip3_23_1279)">
<g clip-path="url(#clip4_23_1279)">
<path d="M3.54972 21.7266C3.025 21.6811 2.70492 21.6244 2.58948 21.5562C2.4688 21.4881 2.32975 21.3064 2.17233 21.0111C1.96245 20.8067 1.83914 20.6478 1.80241 20.5342C1.76043 20.4206 1.75256 20.3184 1.77879 20.2276C1.90997 20.2276 2.02803 20.2208 2.13298 20.2071C2.23792 20.1981 2.30351 20.1594 2.32975 20.0913C2.32975 20.0232 2.37697 19.9778 2.47142 19.955C2.56062 19.9323 2.6577 19.9323 2.76264 19.955C3.26112 19.9778 3.89865 19.8347 4.67524 19.5258C5.44657 19.2214 6.28612 18.7899 7.19388 18.2312C8.0964 17.677 8.98055 17.0593 9.84633 16.3779C10.5285 15.6057 11.0269 14.997 11.3418 14.5519C11.6566 14.1113 11.8403 13.7479 11.8927 13.4617C11.9452 13.1801 11.9059 12.9371 11.7747 12.7327C11.6697 12.551 11.2893 12.476 10.6334 12.5078C9.97751 12.5441 9.24291 12.7894 8.42959 13.2437C7.30145 13.8569 6.39631 14.4247 5.71418 14.9471C5.03205 15.4694 4.40238 16.0599 3.82519 16.7186C3.61531 16.9457 3.41329 17.2183 3.21915 17.5362C3.01975 17.8542 2.85447 18.1267 2.72329 18.3539C2.59211 18.581 2.52652 18.6945 2.52652 18.6945C2.52652 18.7854 2.37697 18.8989 2.07788 19.0352C1.77355 19.1715 1.51643 19.2396 1.30655 19.2396C1.2016 19.1942 1.06518 19.1079 0.897268 18.9807C0.724111 18.8581 0.611296 18.6945 0.558825 18.4901C0.375173 18.3766 0.243994 18.2857 0.165286 18.2176C0.0865783 18.1494 0.0341067 18.07 0.0078708 17.9791C-0.0183651 17.8428 0.0209884 17.6271 0.125932 17.3318C0.230876 17.0366 0.375173 16.571 0.558825 15.935C0.71624 15.3445 0.894644 14.7313 1.09404 14.0954C1.28818 13.4594 1.47708 12.9143 1.66073 12.4601C1.84438 12.0059 1.97556 11.756 2.05427 11.7106C2.05427 11.7106 2.10674 11.6084 2.21169 11.404C2.31663 11.1996 2.3691 10.9611 2.3691 10.6886C2.42157 10.416 2.50815 10.1776 2.62884 9.97315C2.74428 9.76875 2.80199 9.62112 2.80199 9.53027C2.90694 9.46214 3.06435 9.18959 3.27424 8.71264C3.48413 8.23569 3.74649 7.61111 4.06132 6.83891C4.06132 6.77077 4.15314 6.5482 4.33679 6.17118C4.52045 5.7987 4.74345 5.35582 5.00581 4.84253C5.26817 4.33379 5.5384 3.80005 5.8165 3.24134C6.08935 2.68717 6.31761 2.19432 6.50126 1.7628C6.81609 1.37669 7.06008 1.01785 7.23324 0.686251C7.40115 0.359199 7.57693 0.161606 7.76058 0.0934707C7.89176 0.0707588 8.05705 0.0752989 8.25644 0.107096C8.45058 0.143435 8.64735 0.20703 8.84675 0.297877C9.04089 0.388725 9.20355 0.524996 9.33473 0.706691C9.41344 0.820251 9.46591 0.922455 9.49215 1.0133C9.51838 1.10415 9.47903 1.26768 9.37409 1.50388C9.26914 1.74463 9.06713 2.14208 8.76804 2.69625C8.4637 3.25497 8.02294 4.0567 7.44575 5.10145C6.71114 6.46416 6.10772 7.67925 5.63547 8.74671C5.16323 9.81417 4.76969 10.7567 4.45486 11.5743C4.14003 12.392 3.85143 13.096 3.58907 13.6866L3.3923 14.436L4.37615 13.6184C4.76969 13.3686 5.20258 13.062 5.67483 12.6986C6.14707 12.3352 6.56685 12.0172 6.93415 11.7447C7.14404 11.6084 7.42738 11.4653 7.78419 11.3154C8.13575 11.1701 8.48207 11.0406 8.82313 10.9271C9.1642 10.8135 9.41344 10.7454 9.57086 10.7226C9.64956 10.6999 9.84633 10.6659 10.1612 10.6204C10.476 10.575 10.8564 10.5523 11.3024 10.5523C11.8796 10.5523 12.3466 10.6659 12.7034 10.893C13.055 11.1201 13.4013 11.4835 13.7424 11.9832C14.031 12.4601 14.149 12.9984 14.0965 13.598C14.0441 14.2021 13.8342 14.7654 13.4669 15.2877C13.3357 15.3786 13.2045 15.4967 13.0733 15.642C12.9422 15.7919 12.8766 15.9123 12.8766 16.0032C12.8503 16.1622 12.6142 16.4847 12.1682 16.9707C11.7222 17.4613 11.2762 17.9223 10.8302 18.3539C10.3579 18.7854 9.78074 19.2101 9.09861 19.628C8.41648 20.0504 7.74221 20.4274 7.07582 20.759C6.40418 21.0861 5.83224 21.3178 5.35999 21.454C5.15011 21.4767 4.84839 21.5176 4.45486 21.5767C4.06132 21.6312 3.7596 21.6811 3.54972 21.7266ZM17.481 22.3057C16.9825 22.4193 16.5811 22.3284 16.2768 22.0332C15.9777 21.7379 15.8019 21.2837 15.7494 20.6705C15.6969 20.0572 15.7756 19.3305 15.9855 18.4901C16.1167 18.2176 16.2217 17.9496 16.3004 17.6861C16.3791 17.4272 16.4184 17.2183 16.4184 17.0593C16.4709 16.8322 16.5758 16.496 16.7333 16.0509C16.8907 15.6103 17.0612 15.1515 17.2449 14.6745C17.4285 14.1976 17.6043 13.7706 17.7722 13.3936C17.9454 13.0211 18.0582 12.7894 18.1106 12.6986C18.2156 12.6986 18.3074 12.6191 18.3861 12.4601C18.4648 12.3011 18.5042 12.1421 18.5042 11.9832C18.5042 11.8015 18.5488 11.5971 18.638 11.3699C18.7324 11.1428 18.8321 10.9838 18.9371 10.893C18.9371 10.7794 18.9686 10.65 19.0315 10.5046C19.0997 10.3547 19.1338 10.2343 19.1338 10.1435C19.1338 10.0526 19.1653 9.9618 19.2283 9.87095C19.2965 9.7801 19.3306 9.68925 19.3306 9.59841C19.5143 9.30315 19.7556 8.83074 20.0547 8.18118C20.3591 7.53617 20.687 6.8162 21.0386 6.02128C21.3954 5.22636 21.7312 4.4428 22.046 3.6706C22.3609 2.89839 22.6153 2.24429 22.8095 1.70829C23.0089 1.17683 23.1086 0.854319 23.1086 0.74076C23.1086 0.559064 23.1611 0.422792 23.266 0.331945C23.3709 0.241097 23.5284 0.195673 23.7382 0.195673C23.8169 0.127537 23.914 0.0821127 24.0295 0.0594008C24.1501 0.0366888 24.263 0.0253334 24.3679 0.0253334C24.3679 0.0253334 24.4204 0.0707578 24.5253 0.161605C24.6303 0.252453 24.7877 0.388725 24.9976 0.57042C25.2075 0.729404 25.3308 0.911098 25.3675 1.11551C25.4095 1.31991 25.4305 1.55839 25.4305 1.83093C25.4305 2.12619 25.3911 2.38737 25.3124 2.61449C25.2337 2.84161 25.0763 3.17093 24.8401 3.60246C24.604 4.03399 24.2367 4.70399 23.7382 5.61247C23.5284 6.0667 23.3053 6.49142 23.0692 6.8866C22.8331 7.28633 22.715 7.53162 22.715 7.62247C22.715 7.71332 22.6678 7.84959 22.5734 8.03128C22.4842 8.21298 22.3871 8.4401 22.2821 8.71264C22.1772 8.89434 22.0329 9.16007 21.8493 9.50983C21.6656 9.86414 21.4741 10.2389 21.2747 10.6341C21.0805 11.0338 20.9179 11.3745 20.7867 11.6561C20.6555 11.9423 20.5899 12.1081 20.5899 12.1535C20.5899 12.2443 20.5821 12.3352 20.5663 12.426C20.5558 12.5169 20.4981 12.6077 20.3932 12.6986C20.2882 12.6986 20.2279 12.7599 20.2121 12.8826C20.2016 13.0097 20.1964 13.0733 20.1964 13.0733C20.1964 13.3004 19.9865 13.9023 19.5667 14.8789C19.147 16.1281 18.7587 17.275 18.4019 18.3198C18.0503 19.3645 17.8745 20.2049 17.8745 20.8408C17.8745 21.3859 17.8614 21.7425 17.8352 21.9105C17.8089 22.0831 17.6909 22.2149 17.481 22.3057ZM25.6587 21.7947C25.3176 21.7947 25.05 21.7379 24.8559 21.6244C24.6565 21.5108 24.4125 21.3518 24.1239 21.1474C23.6254 20.6932 23.2712 20.2548 23.0614 19.8324C22.8515 19.4145 22.7859 19.0125 22.8646 18.6264C22.9433 18.4447 22.9774 18.2675 22.9669 18.0949C22.9512 17.9269 22.9433 17.8428 22.9433 17.8428C22.8121 17.7293 22.7728 17.6543 22.8252 17.618C22.8777 17.5862 22.9302 17.5249 22.9826 17.434C23.1401 17.434 23.1925 17.3091 23.1401 17.0593C23.0876 16.8776 23.1925 16.4801 23.4549 15.8669C23.7173 15.2537 24.0452 14.6745 24.4387 14.1294C24.5962 13.9023 24.8323 13.6002 25.1471 13.2232C25.4619 12.8508 25.8109 12.476 26.1939 12.099C26.577 11.7265 26.9233 11.4267 27.2329 11.1996C27.8888 10.7226 28.466 10.3706 28.9644 10.1435C29.4682 9.91637 30.006 9.74603 30.5779 9.63247C31.1551 9.51892 31.5565 9.46214 31.7822 9.46214C32.0025 9.46214 32.3095 9.64383 32.703 10.0072C33.3065 10.2343 33.7472 10.5069 34.0253 10.8249C34.3034 11.1428 34.4792 11.6084 34.5527 12.2216C34.6314 12.903 34.5737 13.6797 34.3795 14.5519C34.1801 15.4286 33.5557 16.5142 32.5063 17.8088C31.8504 18.6264 31.2496 19.2328 30.7039 19.628C30.1477 20.0277 29.4918 20.4206 28.7362 20.8067C28.18 21.1247 27.6789 21.3564 27.2329 21.5017C26.7921 21.6516 26.2674 21.7493 25.6587 21.7947ZM29.4367 18.1835C30.0663 17.5703 30.5727 16.9911 30.9557 16.446C31.3335 15.901 31.693 15.2083 32.034 14.3679C32.139 14.1181 32.2046 13.8047 32.2308 13.4276C32.2623 13.0552 32.257 12.7031 32.2151 12.3715C32.1731 12.0445 32.0734 11.8582 31.916 11.8128C31.6011 11.6538 31.2207 11.6016 30.7747 11.6561C30.3339 11.7152 29.8512 11.9377 29.3265 12.3238C28.5079 12.9143 27.7969 13.6457 27.1935 14.5178C26.5901 15.3945 25.9998 16.3893 25.4226 17.5022C25.029 18.3198 24.9451 18.9739 25.1707 19.4645C25.3911 19.9505 25.8765 20.1186 26.6268 19.9687C27.3772 19.8233 28.3138 19.2283 29.4367 18.1835ZM40.9674 28.8127C40.2328 29.0625 39.4667 29.0239 38.6691 28.6969C37.8663 28.3653 37.1763 27.8474 36.5991 27.1434C36.4941 27.0071 36.3708 26.7981 36.2292 26.5165C36.0822 26.2303 35.9511 25.9396 35.8356 25.6444C35.7149 25.3491 35.6415 25.0879 35.6152 24.8608C35.589 24.6337 35.6152 24.4974 35.6939 24.452C35.7726 24.3839 35.9038 24.3612 36.0875 24.3839C36.2711 24.4066 36.4495 24.4634 36.6227 24.5542C36.7906 24.6451 36.9008 24.7586 36.9533 24.8949C37.032 25.0539 37.1579 25.2583 37.3311 25.5081C37.499 25.7579 37.6879 25.9851 37.8978 26.1895C38.1076 26.3939 38.2651 26.5074 38.37 26.5301C38.8685 26.7345 39.2358 26.8254 39.4719 26.8027C39.708 26.78 39.9179 26.7118 40.1016 26.5983C40.5476 26.303 40.9149 25.9169 41.2035 25.44C41.4921 24.963 41.82 24.2249 42.1873 23.2256C42.4759 22.3852 42.7724 21.4926 43.0767 20.5478C43.3758 19.6075 43.6434 18.8762 43.8795 18.3539C43.9583 18.0813 44.0579 17.8474 44.1786 17.6521C44.2941 17.4613 44.4043 17.3205 44.5092 17.2296H44.7453C44.1681 17.5476 43.6565 17.911 43.2105 18.3198C42.7645 18.7286 42.2004 19.0579 41.5183 19.3078C41.3609 19.4667 40.9752 19.5621 40.3613 19.5939C39.7421 19.6303 39.144 19.5689 38.5668 19.41C38.1995 19.2283 37.9319 19.092 37.764 19.0011C37.5908 18.9103 37.4596 18.7854 37.3704 18.6264C37.276 18.4674 37.15 18.2176 36.9926 17.8769C36.809 17.5362 36.7827 16.9798 36.9139 16.2076C37.0451 15.4354 37.2812 14.6632 37.6223 13.891C37.9371 13.3232 38.3962 12.7099 38.9997 12.0513C39.6031 11.3926 40.2459 10.7953 40.928 10.2593C41.6101 9.72786 42.2267 9.394 42.7776 9.25773C42.9875 9.16688 43.2184 9.10329 43.4703 9.06695C43.7169 9.03515 44.0763 9.07603 44.5486 9.18959C44.9946 9.23502 45.3356 9.31905 45.5718 9.4417C45.8079 9.56888 46.1883 9.82553 46.713 10.2116C47.0541 10.5069 47.3374 10.8021 47.5631 11.0974C47.7834 11.3926 47.9592 11.6993 48.0904 12.0172C48.2741 12.3579 48.3475 12.6691 48.3108 12.9507C48.2688 13.2369 48.1166 13.5276 47.8543 13.8228C47.6182 14.1181 47.3689 14.4133 47.1066 14.7086C46.8442 15.0038 46.6474 15.4127 46.5163 15.935C46.3851 16.6164 46.1752 17.3818 45.8866 18.2312C45.598 19.0852 45.3488 19.8755 45.1389 20.6023L44.5092 22.7145C43.8533 24.6451 43.2315 26.0827 42.6438 27.0275C42.0509 27.9678 41.4921 28.5629 40.9674 28.8127ZM39.5506 17.911C40.0753 17.8883 40.5738 17.7974 41.0461 17.6384C41.5183 17.4794 41.9774 17.2114 42.4235 16.8344C42.8695 16.4619 43.3155 15.9805 43.7615 15.3899C44.2075 14.8449 44.5223 14.2702 44.706 13.6661C44.8896 13.0665 44.9552 12.4828 44.9027 11.915C44.8765 11.5516 44.8109 11.3132 44.706 11.1996C44.601 11.086 44.378 11.052 44.037 11.0974C43.5385 11.1655 42.9875 11.3972 42.3841 11.7924C41.7807 12.1921 41.2166 12.6872 40.6919 13.2777C40.2983 13.732 39.9704 14.2771 39.708 14.913C39.4457 15.5944 39.2883 16.2416 39.2358 16.8549C39.1833 17.4681 39.2883 17.8201 39.5506 17.911ZM51.5535 21.1133C51.3174 20.9544 51.1548 20.7954 51.0656 20.6364C50.9711 20.4774 50.9632 20.1708 51.0419 19.7166C51.1207 19.0806 51.2256 18.5174 51.3568 18.0268C51.488 17.5408 51.6454 16.9798 51.829 16.3438C51.8815 16.0713 52.0337 15.6057 52.2855 14.9471C52.5321 14.2884 52.8391 13.573 53.2064 12.8008C53.5737 12.0286 53.941 11.295 54.3083 10.6C54.6756 9.90956 54.9904 9.394 55.2528 9.05332C55.4627 8.91705 55.7198 8.86027 56.0241 8.88298C56.3232 8.90569 56.5777 9.0079 56.7876 9.18959C57.0762 9.394 57.1234 9.75058 56.9293 10.2593C56.7299 10.7726 56.3285 11.5743 55.725 12.6645C55.4102 13.2777 55.1741 13.7365 55.0167 14.0409C54.8593 14.3497 54.7937 14.5314 54.8199 14.5859C54.8461 14.645 54.9642 14.6177 55.1741 14.5042C55.3315 14.2543 55.6201 13.9636 56.0399 13.632C56.4597 13.305 56.9057 12.9825 57.3779 12.6645C57.8502 12.3465 58.2962 12.0626 58.7159 11.8128C59.1357 11.563 59.4243 11.404 59.5817 11.3359C59.7916 11.2223 60.0356 11.1246 60.3137 11.0429C60.5866 10.9657 60.7755 10.9043 60.8804 10.8589C61.4838 10.6091 62.1004 10.5182 62.73 10.5864C63.3597 10.6545 63.7532 10.8589 63.9107 11.1996C63.9369 11.3813 64.0208 11.5176 64.1625 11.6084C64.3094 11.6993 64.3829 11.7447 64.3829 11.7447C64.4878 11.7447 64.5456 11.7788 64.5561 11.8469C64.5718 11.915 64.5797 11.9491 64.5797 11.9491C64.5797 12.1081 64.4406 12.2035 64.1625 12.2353C63.8897 12.2716 63.5433 12.3011 63.1236 12.3238C62.7825 12.3465 62.4808 12.4033 62.2184 12.4942C61.9561 12.585 61.6412 12.6986 61.2739 12.8349C60.277 13.3345 59.3272 13.8228 58.4247 14.2998C57.517 14.7767 56.6433 15.4127 55.8038 16.2076C55.6201 16.3893 55.4365 16.605 55.2528 16.8549C55.0692 17.1047 54.8724 17.3772 54.6625 17.6725C54.5313 17.7861 54.4001 18.0359 54.269 18.422C54.1378 18.8081 54.025 19.176 53.9305 19.5258C53.8413 19.8801 53.7967 20.0913 53.7967 20.1594C53.7967 20.1594 53.7574 20.2662 53.6786 20.4797C53.5999 20.6977 53.4688 20.9089 53.2851 21.1133C52.9703 21.4767 52.7079 21.6584 52.498 21.6584C52.2881 21.6584 51.9733 21.4767 51.5535 21.1133ZM65.2487 21.0793C65.1437 20.8976 65.0126 20.7545 64.8551 20.65C64.6977 20.5501 64.619 20.4547 64.619 20.3639C64.619 20.273 64.6112 20.1753 64.5954 20.0709C64.5849 19.9709 64.5272 19.8755 64.4222 19.7847C64.2911 19.6484 64.3042 19.335 64.4616 18.8444C64.619 18.3584 64.8814 17.7565 65.2487 17.0388C65.616 16.3257 66.0489 15.5716 66.5474 14.7767C66.7572 14.595 66.9671 14.3566 67.177 14.0613C67.3869 13.766 67.5443 13.573 67.6493 13.4821C67.6493 13.3913 67.6886 13.305 67.7673 13.2232C67.846 13.146 67.9379 13.1074 68.0428 13.1074V12.903C68.0428 12.7894 68.1661 12.5964 68.4127 12.3238C68.6646 12.0513 68.9742 11.7492 69.3415 11.4176C69.7088 11.0906 70.0892 10.7726 70.4827 10.4637C70.8763 10.1594 71.2042 9.93909 71.4666 9.80281C72.0175 9.48485 72.5869 9.2918 73.1746 9.22366C73.7675 9.15552 74.2738 9.26908 74.6936 9.56434C74.7723 9.63247 74.9035 9.74603 75.0872 9.90502C75.2708 10.064 75.4859 10.2389 75.7326 10.4297C75.9844 10.625 76.2415 10.8249 76.5039 11.0293L77.96 12.1535L77.2516 13.8569C76.9105 14.7654 76.824 15.5603 76.9919 16.2416C77.165 16.923 77.4221 17.5135 77.7632 18.0132C77.8944 18.263 78.162 18.5015 78.566 18.7286C78.9753 18.9557 79.3636 19.092 79.7309 19.1374C79.9408 19.1601 80.1376 19.2283 80.3212 19.3418C80.5049 19.4554 80.5967 19.6371 80.5967 19.8869C80.5967 20.114 80.5442 20.2957 80.4393 20.432C80.3343 20.5683 80.1507 20.6591 79.8883 20.7045C79.0225 20.7954 78.2145 20.6137 77.4641 20.1594C76.719 19.7052 76.0316 18.9557 75.402 17.911C75.297 17.7747 75.158 17.5181 74.9848 17.141C74.8169 16.7686 74.7198 16.5255 74.6936 16.412C74.5887 16.5255 74.3919 16.7345 74.1033 17.0388C73.8147 17.3477 73.5917 17.5703 73.4343 17.7066C71.5715 19.3418 69.9633 20.4365 68.6095 20.9907C67.261 21.5494 66.1407 21.5789 65.2487 21.0793ZM66.6654 19.1715C66.6654 19.3305 66.9461 19.3236 67.5076 19.151C68.0743 18.983 68.6856 18.6718 69.3415 18.2176C70.2335 17.5589 71.1308 16.8322 72.0333 16.0372C72.941 15.2423 73.6704 14.5042 74.2214 13.8228L75.0872 12.5964C74.8248 12.074 74.5414 11.7152 74.2371 11.5198C73.938 11.3291 73.6835 11.2337 73.4736 11.2337C73.1326 11.2337 72.6262 11.5062 71.9546 12.0513C71.2882 12.5964 70.5746 13.3232 69.8137 14.2316C69.0529 15.1401 68.3314 16.1394 67.6493 17.2296C67.3869 17.6838 67.156 18.1199 66.9566 18.5378C66.7625 18.9603 66.6654 19.1715 66.6654 19.1715ZM99.9194 20.8749C99.7883 20.8294 99.5915 20.7159 99.3291 20.5342C99.0668 20.3525 98.8411 20.0391 98.6522 19.5939C98.4686 19.1533 98.3768 18.5355 98.3768 17.7406C98.4082 17.0593 98.4292 16.5255 98.4397 16.1394C98.4502 15.7533 98.3531 15.5603 98.1485 15.5603C97.9386 15.5603 97.5372 15.7352 96.9443 16.0849C96.3566 16.4392 95.6823 16.9116 94.9215 17.5022C94.1606 18.0927 93.3867 18.7513 92.5996 19.4781C92.3372 19.7279 92.0801 19.9596 91.8283 20.1731C91.5764 20.3911 91.3324 20.5274 91.0963 20.5819C90.8654 20.6409 90.5899 20.5683 90.2699 20.3639L89.8448 20.0572C89.7137 19.9437 89.6349 19.8233 89.6087 19.6961C89.5825 19.5735 89.5956 19.4327 89.6481 19.2737L90.5532 17.0252C90.973 16.2076 91.2616 15.6103 91.419 15.2332C91.5712 14.8608 91.6472 14.6223 91.6472 14.5178C91.6472 14.4179 91.6105 14.3793 91.5371 14.402C91.3272 14.4247 91.0123 14.5314 90.5926 14.7222C90.1728 14.9175 89.8973 15.106 89.7661 15.2877C89.6612 15.2877 89.5012 15.3899 89.286 15.5944C89.0814 15.7988 88.819 15.9918 88.4989 16.1735C88.3205 16.4461 87.9611 16.7981 87.4206 17.2296C86.8854 17.6611 86.3555 18.104 85.8307 18.5583C85.4897 18.8081 85.1539 19.1147 84.8233 19.4781C84.498 19.8415 84.2225 20.1594 83.9969 20.432C83.7765 20.7045 83.6269 20.8408 83.5482 20.8408C83.2019 20.8408 82.8923 20.7613 82.6195 20.6023C82.3414 20.4433 82.1367 20.1822 82.0056 19.8188C81.8009 19.4327 81.8009 18.8921 82.0056 18.1971C82.2207 17.5067 82.4594 16.605 82.7218 15.4921C82.8267 15.1515 82.8923 14.9016 82.9186 14.7427C82.9448 14.5837 82.9894 14.4179 83.0524 14.2453C83.1206 14.0772 83.2386 13.8115 83.4066 13.4481C83.5797 13.0847 83.8473 12.5396 84.2094 11.8128C84.3983 11.3813 84.5111 11.0588 84.5478 10.8453C84.5845 10.6273 84.6029 10.4728 84.6029 10.382C84.6029 10.1548 84.6764 9.9618 84.8233 9.80281C84.9702 9.64383 85.146 9.53027 85.3506 9.46214C85.5658 9.394 85.7625 9.38264 85.9409 9.42807C86.2295 9.47349 86.4866 9.59841 86.7123 9.80281C86.9379 10.0072 87.0638 10.2911 87.0901 10.6545C87.1111 10.9271 87.0848 11.1701 87.0114 11.3836C86.9327 11.6016 86.8513 11.8015 86.7674 11.9832L86.3345 12.903C86.2033 13.1528 86.0354 13.5162 85.8307 13.9932C85.6209 14.4701 85.4372 14.9062 85.2798 15.3014C85.1224 15.7011 85.0437 15.935 85.0437 16.0032C85.0699 16.0713 85.1617 16.0531 85.3192 15.9487C85.4713 15.8487 85.6733 15.7011 85.9252 15.5058C86.1771 15.315 86.4342 15.1288 86.6965 14.9471C87.2422 14.4928 87.864 14.0545 88.5619 13.632C89.2598 13.2141 89.9235 12.8576 90.5532 12.5623C91.1776 12.2671 91.663 12.074 92.0093 11.9832C92.4501 11.9832 92.757 12.0513 92.9302 12.1876C93.1033 12.3238 93.3972 12.5737 93.8117 12.9371C94.0006 13.096 94.1082 13.3004 94.1344 13.5503C94.1606 13.8001 94.1475 14.0386 94.0951 14.2657C94.0636 14.3566 93.9822 14.5769 93.8511 14.9266C93.7199 15.2809 93.5966 15.6171 93.4811 15.935C93.3657 16.253 93.308 16.412 93.308 16.412C93.308 16.412 93.4575 16.2984 93.7566 16.0713C94.0557 15.8442 94.3915 15.5989 94.7641 15.3354C95.1314 15.0765 95.4042 14.8789 95.5826 14.7427C96.6111 14.0613 97.5031 13.6298 98.2587 13.4481C99.0248 13.2664 99.644 13.5049 100.116 14.1635C100.431 14.4133 100.594 14.6859 100.604 14.9811C100.615 15.2764 100.62 15.7874 100.62 16.5142C100.651 16.8094 100.68 17.1615 100.707 17.5703C100.727 17.9791 100.759 18.347 100.801 18.6741C100.843 19.0057 100.888 19.2055 100.935 19.2737C101.019 19.3645 101.171 19.4372 101.391 19.4917C101.612 19.5508 101.908 19.603 102.281 19.6484C102.674 19.6939 102.908 19.8415 102.981 20.0913C103.06 20.3411 102.892 20.5796 102.477 20.8067C102.084 21.0111 101.651 21.102 101.179 21.0793C100.707 21.0566 100.287 20.9884 99.9194 20.8749Z" fill="#DB202C"/>
</g>
</g>
</g>
</g>
</g>
<defs>
<clipPath id="clip0_23_1279">
<rect width="103" height="29" fill="white"/>
</clipPath>
<clipPath id="clip1_23_1279">
<rect width="103" height="29" fill="white"/>
</clipPath>
<clipPath id="clip2_23_1279">
<rect width="103" height="29" fill="white"/>
</clipPath>
<clipPath id="clip3_23_1279">
<rect width="103" height="29" fill="white"/>
</clipPath>
<clipPath id="clip4_23_1279">
<rect width="103" height="29" fill="white"/>
</clipPath>
</defs>
</svg>
